<svg xmlns="http://www.w3.org/2000/svg" fill="none" viewBox="0 0 48 48" height="48" width="48" aria-hidden="true">
<path stroke-linejoin="round" stroke="#2D2A24" d="M7.06284 8.47581L7.65978 16.4016L8.5395 16.8839L13.535 40.4684C17.0915 41.6008 20.809 42.1117 24.5314 41.9796C28.2537 42.1087 31.9707 41.5979 35.5278 40.4684L40.4448 16.8839L41.3088 16.4016L41.9215 8.47581M8.61441 17.2376C19.4162 19.2629 29.5693 19.2629 40.3711 17.2376M24.7199 11.2249C34.0355 11.2249 42 10.0513 42 8.60442C42 7.15752 34.1454 6 24.7199 6C15.2944 6 7 7.18967 7 8.60442C7 10.0192 15.3887 11.2249 24.7199 11.2249Z"></path>
</svg>
